<svg width="311" height="311" viewBox="0 0 311 311" fill="none" xmlns="http://www.w3.org/2000/svg">
<rect width="311" height="311" rx="24" fill="#FF592C"/>
<path d="M152.68 146.423C151.688 145.979 150.62 145.5 148.833 145.5C142.167 145.5 140.5 152.167 140.5 158.833C140.5 165.5 145.5 173.833 148.833 173.833C150.786 173.833 152.167 173.261 153.311 172.788C154.119 172.453 154.81 172.167 155.5 172.167C156.19 172.167 156.881 172.453 157.69 172.788C158.833 173.261 160.214 173.833 162.167 173.833C164.546 173.833 167.775 169.587 169.428 164.731C169.594 164.242 169.255 163.738 168.756 163.603C165.92 162.836 163.833 160.245 163.833 157.167C163.833 154.262 165.692 151.79 168.284 150.877C168.777 150.704 169.08 150.164 168.848 149.697C167.6 147.18 165.513 145.5 162.167 145.5C160.38 145.5 159.312 145.979 158.32 146.423C157.462 146.808 156.66 147.167 155.5 147.167C154.34 147.167 153.539 146.808 152.68 146.423Z" fill="#FCFCFD"/>
<path d="M155.5 143.417C155.5 139.965 158.298 137.167 161.75 137.167C161.98 137.167 162.167 137.354 162.167 137.584C162.167 141.035 159.369 143.834 155.917 143.834C155.687 143.834 155.5 143.647 155.5 143.417Z" fill="#FCFCFD"/>
</svg>
