<svg width="160" height="160" viewBox="0 0 160 160" fill="none" xmlns="http://www.w3.org/2000/svg">
<rect width="160" height="160" rx="24" fill="#3772FF"/>
<path d="M77.1797 70.9229C76.188 70.4787 75.1197 70 73.3333 70C66.6667 70 65.0001 76.667 65 83.3333C65 89.9997 70 98.3333 73.3333 98.3333C75.286 98.3333 76.6667 97.7615 77.8105 97.2877C78.6193 96.9527 79.3097 96.6667 80 96.6667C80.6903 96.6667 81.3807 96.9527 82.1895 97.2877C83.3333 97.7615 84.714 98.3333 86.6667 98.3333C89.0462 98.3333 92.2752 94.0868 93.9282 89.2312C94.0945 88.7422 93.755 88.2378 93.2563 88.103C90.4202 87.3365 88.3333 84.7453 88.3333 81.6667C88.3333 78.7617 90.1915 76.2905 92.7842 75.3771C93.2765 75.2036 93.5803 74.6645 93.3483 74.1968C92.1 71.6801 90.0133 70 86.6667 70C84.8803 70 83.812 70.4787 82.8203 70.9229C81.9615 71.3077 81.1603 71.6667 80 71.6667C78.8397 71.6667 78.0385 71.3077 77.1797 70.9229Z" fill="#FCFCFD"/>
<path d="M80 67.917C80 64.4652 82.7982 61.667 86.25 61.667C86.4802 61.667 86.6667 61.8535 86.6667 62.0837C86.6667 65.5354 83.8685 68.3337 80.4167 68.3337C80.1865 68.3337 80 68.1471 80 67.917Z" fill="#FCFCFD"/>
</svg>
