<svg width="40" height="40" viewBox="0 0 40 40" fill="none" xmlns="http://www.w3.org/2000/svg">
<rect width="40" height="40" rx="20" fill="#45B36B"/>
<path fill-rule="evenodd" clip-rule="evenodd" d="M26.818 22.1244C26.2016 21.4098 25.1428 21.4466 24.3149 21.8997C23.0338 22.6009 21.5635 22.9996 20 22.9996C18.4365 22.9996 16.9662 22.6009 15.6851 21.8997C14.8572 21.4466 13.7984 21.4098 13.182 22.1244C11.8222 23.701 11 25.7543 11 27.9996V28.9996C11 30.1042 11.8954 30.9996 13 30.9996H27C28.1046 30.9996 29 30.1042 29 28.9996V27.9996C29 25.7543 28.1778 23.701 26.818 22.1244Z" fill="#FCFCFD"/>
<path d="M25 14C25 16.7614 22.7614 19 20 19C17.2386 19 15 16.7614 15 14C15 11.2386 17.2386 9 20 9C22.7614 9 25 11.2386 25 14Z" fill="#FCFCFD"/>
</svg>
