<svg width="40" height="40" viewBox="0 0 40 40" fill="none" xmlns="http://www.w3.org/2000/svg">
<rect width="40" height="40" rx="20" fill="#9757D7"/>
<path fill-rule="evenodd" clip-rule="evenodd" d="M20 32C24.4183 32 28 28.4183 28 24C28 19.5817 24.4183 16 20 16C15.5817 16 12 19.5817 12 24C12 28.4183 15.5817 32 20 32ZM20 29C22.7614 29 25 26.7614 25 24C25 21.2386 22.7614 19 20 19C17.2386 19 15 21.2386 15 24C15 26.7614 17.2386 29 20 29Z" fill="#FCFCFD"/>
<path d="M23 24C23 25.6569 21.6569 27 20 27C18.3431 27 17 25.6569 17 24C17 22.3431 18.3431 21 20 21C21.6569 21 23 22.3431 23 24Z" fill="#FCFCFD"/>
<path d="M24.584 15.11C24.8354 15.2399 25.1489 15.1528 25.283 14.9036L28.2066 9.4741C28.5653 8.80787 28.0828 8 27.3261 8H23.594C23.228 8 22.8913 8.19989 22.7161 8.52115L21.27 11.1722C21.1886 11.3215 21.1886 11.5019 21.27 11.6511L22.6618 14.2026C22.7258 14.3201 22.8345 14.4064 22.9623 14.4459C23.5258 14.6204 24.068 14.8434 24.584 15.11Z" fill="#FCFCFD"/>
<path d="M15.4156 15.1102C15.164 15.2399 14.8505 15.1528 14.7164 14.9036L11.7928 9.4741C11.4341 8.80787 11.9166 8 12.6733 8H16.4054C16.7714 8 17.1081 8.19989 17.2833 8.52115L19.8578 13.241C20.0424 13.5795 19.7902 13.995 19.4054 14.0181C18.0176 14.1013 16.6525 14.4727 15.4156 15.1102Z" fill="#FCFCFD"/>
</svg>
