<svg width="48" height="49" viewBox="0 0 48 49" fill="none" xmlns="http://www.w3.org/2000/svg">
<g clip-path="url(#clip0_11064_23235)">
<path fill-rule="evenodd" clip-rule="evenodd" d="M24 44.4004C31.732 44.4004 38 38.1324 38 30.4004C38 22.6684 31.732 16.4004 24 16.4004C16.268 16.4004 10 22.6684 10 30.4004C10 38.1324 16.268 44.4004 24 44.4004ZM24 48.4004C33.9411 48.4004 42 40.3415 42 30.4004C42 20.4593 33.9411 12.4004 24 12.4004C14.0589 12.4004 6 20.4593 6 30.4004C6 40.3415 14.0589 48.4004 24 48.4004Z" fill="#23262F"/>
<path fill-rule="evenodd" clip-rule="evenodd" d="M17.7086 6.40039C14.735 6.40039 12.8011 9.52964 14.1309 12.1892L15.7892 15.506C16.2832 16.4939 15.8827 17.6953 14.8948 18.1892C13.9068 18.6832 12.7055 18.2828 12.2115 17.2948L10.5531 13.9781C7.89354 8.65889 11.7615 2.40039 17.7086 2.40039H30.2922C36.2392 2.40039 40.1072 8.65889 37.4476 13.9781L35.7892 17.2948C35.2952 18.2828 34.0939 18.6832 33.1059 18.1892C32.118 17.6953 31.7175 16.4939 32.2115 15.506L33.8699 12.1892C35.1997 9.52964 33.2657 6.40039 30.2922 6.40039H17.7086Z" fill="#23262F"/>
</g>
<defs>
<clipPath id="clip0_11064_23235">
<rect width="48" height="48" fill="white" transform="translate(0 0.400391)"/>
</clipPath>
</defs>
</svg>
