<svg width="42" height="24" viewBox="0 0 42 24" fill="none" xmlns="http://www.w3.org/2000/svg">
<rect width="42" height="24" rx="12" fill="#EF466F"/>
<path d="M12.84 11.764C12.84 10.1493 13.1107 8.88933 13.652 7.984C14.2027 7.06933 15.1453 6.612 16.48 6.612C17.8147 6.612 18.7527 7.06933 19.294 7.984C19.8447 8.88933 20.12 10.1493 20.12 11.764C20.12 13.3973 19.8447 14.676 19.294 15.6C18.7527 16.5147 17.8147 16.972 16.48 16.972C15.1453 16.972 14.2027 16.5147 13.652 15.6C13.1107 14.676 12.84 13.3973 12.84 11.764ZM18.552 11.764C18.552 11.008 18.5007 10.3687 18.398 9.846C18.3047 9.32333 18.1087 8.89867 17.81 8.572C17.5113 8.236 17.068 8.068 16.48 8.068C15.892 8.068 15.4487 8.236 15.15 8.572C14.8513 8.89867 14.6507 9.32333 14.548 9.846C14.4547 10.3687 14.408 11.008 14.408 11.764C14.408 12.548 14.4547 13.206 14.548 13.738C14.6413 14.27 14.8373 14.6993 15.136 15.026C15.444 15.3527 15.892 15.516 16.48 15.516C17.068 15.516 17.5113 15.3527 17.81 15.026C18.118 14.6993 18.3187 14.27 18.412 13.738C18.5053 13.206 18.552 12.548 18.552 11.764ZM22.6908 14.83C23.5868 14.0553 24.2914 13.4207 24.8048 12.926C25.3274 12.422 25.7614 11.8993 26.1068 11.358C26.4521 10.8167 26.6248 10.2753 26.6248 9.734C26.6248 9.174 26.4894 8.73533 26.2188 8.418C25.9574 8.10067 25.5421 7.942 24.9728 7.942C24.4221 7.942 23.9928 8.11933 23.6848 8.474C23.3861 8.81933 23.2274 9.286 23.2088 9.874H21.6688C21.6968 8.81 22.0141 7.998 22.6208 7.438C23.2368 6.86867 24.0161 6.584 24.9588 6.584C25.9761 6.584 26.7694 6.864 27.3388 7.424C27.9174 7.984 28.2068 8.73067 28.2068 9.664C28.2068 10.336 28.0341 10.9847 27.6888 11.61C27.3528 12.226 26.9468 12.7813 26.4708 13.276C26.0041 13.7613 25.4068 14.326 24.6788 14.97L24.0488 15.53H28.4868V16.86H21.6828V15.698L22.6908 14.83Z" fill="#FCFCFD"/>
</svg>
