<svg width="38" height="24" viewBox="0 0 38 24" fill="none" xmlns="http://www.w3.org/2000/svg">
<rect width="38" height="24" rx="12" fill="#9757D7"/>
<path d="M12.84 11.764C12.84 10.1493 13.1107 8.88933 13.652 7.984C14.2027 7.06933 15.1453 6.612 16.48 6.612C17.8147 6.612 18.7527 7.06933 19.294 7.984C19.8447 8.88933 20.12 10.1493 20.12 11.764C20.12 13.3973 19.8447 14.676 19.294 15.6C18.7527 16.5147 17.8147 16.972 16.48 16.972C15.1453 16.972 14.2027 16.5147 13.652 15.6C13.1107 14.676 12.84 13.3973 12.84 11.764ZM18.552 11.764C18.552 11.008 18.5007 10.3687 18.398 9.846C18.3047 9.32333 18.1087 8.89867 17.81 8.572C17.5113 8.236 17.068 8.068 16.48 8.068C15.892 8.068 15.4487 8.236 15.15 8.572C14.8513 8.89867 14.6507 9.32333 14.548 9.846C14.4547 10.3687 14.408 11.008 14.408 11.764C14.408 12.548 14.4547 13.206 14.548 13.738C14.6413 14.27 14.8373 14.6993 15.136 15.026C15.444 15.3527 15.892 15.516 16.48 15.516C17.068 15.516 17.5113 15.3527 17.81 15.026C18.118 14.6993 18.3187 14.27 18.412 13.738C18.5053 13.206 18.552 12.548 18.552 11.764ZM21.5988 8.25V6.794H24.5108V17H22.9008V8.25H21.5988Z" fill="#FCFCFD"/>
</svg>
