<svg width="42" height="24" viewBox="0 0 42 24" fill="none" xmlns="http://www.w3.org/2000/svg">
<rect width="42" height="24" rx="12" fill="#45B36B"/>
<path d="M12.84 11.764C12.84 10.1493 13.1107 8.88933 13.652 7.984C14.2027 7.06933 15.1453 6.612 16.48 6.612C17.8147 6.612 18.7527 7.06933 19.294 7.984C19.8447 8.88933 20.12 10.1493 20.12 11.764C20.12 13.3973 19.8447 14.676 19.294 15.6C18.7527 16.5147 17.8147 16.972 16.48 16.972C15.1453 16.972 14.2027 16.5147 13.652 15.6C13.1107 14.676 12.84 13.3973 12.84 11.764ZM18.552 11.764C18.552 11.008 18.5007 10.3687 18.398 9.846C18.3047 9.32333 18.1087 8.89867 17.81 8.572C17.5113 8.236 17.068 8.068 16.48 8.068C15.892 8.068 15.4487 8.236 15.15 8.572C14.8513 8.89867 14.6507 9.32333 14.548 9.846C14.4547 10.3687 14.408 11.008 14.408 11.764C14.408 12.548 14.4547 13.206 14.548 13.738C14.6413 14.27 14.8373 14.6993 15.136 15.026C15.444 15.3527 15.892 15.516 16.48 15.516C17.068 15.516 17.5113 15.3527 17.81 15.026C18.118 14.6993 18.3187 14.27 18.412 13.738C18.5053 13.206 18.552 12.548 18.552 11.764ZM21.7808 9.314C21.8368 8.446 22.1681 7.76933 22.7748 7.284C23.3908 6.79867 24.1748 6.556 25.1268 6.556C25.7801 6.556 26.3448 6.67267 26.8208 6.906C27.2968 7.13933 27.6561 7.45667 27.8988 7.858C28.1414 8.25933 28.2628 8.712 28.2628 9.216C28.2628 9.79467 28.1088 10.2893 27.8008 10.7C27.4928 11.1107 27.1241 11.386 26.6948 11.526V11.582C27.2454 11.75 27.6748 12.058 27.9828 12.506C28.2908 12.9447 28.4448 13.5093 28.4448 14.2C28.4448 14.7507 28.3188 15.2407 28.0668 15.67C27.8148 16.0993 27.4414 16.44 26.9468 16.692C26.4521 16.9347 25.8594 17.056 25.1688 17.056C24.1608 17.056 23.3301 16.7993 22.6768 16.286C22.0328 15.7633 21.6874 15.0167 21.6408 14.046H23.1808C23.2181 14.5407 23.4094 14.9467 23.7548 15.264C24.1001 15.572 24.5668 15.726 25.1548 15.726C25.7241 15.726 26.1628 15.572 26.4708 15.264C26.7788 14.9467 26.9328 14.5407 26.9328 14.046C26.9328 13.3927 26.7228 12.9307 26.3028 12.66C25.8921 12.38 25.2574 12.24 24.3988 12.24H24.0348V10.924H24.4128C25.1688 10.9147 25.7428 10.7887 26.1348 10.546C26.5361 10.3033 26.7368 9.92067 26.7368 9.398C26.7368 8.95 26.5921 8.59533 26.3028 8.334C26.0134 8.06333 25.6028 7.928 25.0708 7.928C24.5481 7.928 24.1421 8.06333 23.8528 8.334C23.5634 8.59533 23.3908 8.922 23.3348 9.314H21.7808Z" fill="#FCFCFD"/>
</svg>
