<svg width="80" height="80" viewBox="0 0 80 80" fill="none" xmlns="http://www.w3.org/2000/svg">
<rect width="80" height="80" rx="24" fill="#EF466F"/>
<path fill-rule="evenodd" clip-rule="evenodd" d="M40 50C43.3137 50 46 47.3137 46 44C46 40.6863 43.3137 38 40 38C36.6863 38 34 40.6863 34 44C34 47.3137 36.6863 50 40 50ZM40 52C44.4183 52 48 48.4183 48 44C48 39.5817 44.4183 36 40 36C35.5817 36 32 39.5817 32 44C32 48.4183 35.5817 52 40 52Z" fill="#FCFCFD"/>
<path fill-rule="evenodd" clip-rule="evenodd" d="M40 46C41.1046 46 42 45.1046 42 44C42 42.8954 41.1046 42 40 42C38.8954 42 38 42.8954 38 44C38 45.1046 38.8954 46 40 46ZM40 48C42.2091 48 44 46.2091 44 44C44 41.7909 42.2091 40 40 40C37.7909 40 36 41.7909 36 44C36 46.2091 37.7909 48 40 48Z" fill="#FCFCFD"/>
<path d="M35.2363 30C34.4929 30 34.0094 30.7823 34.3419 31.4472L36.9246 36.6126C36.3016 36.8723 35.7184 37.2085 35.1869 37.6094L32.553 32.3416C31.5557 30.3469 33.0061 28 35.2363 28H36.7642C37.9005 28 38.9393 28.642 39.4474 29.6584L40.0002 30.7639L40.553 29.6584C41.0612 28.642 42.1 28 43.2363 28H44.7641C46.9943 28 48.4448 30.3469 47.4474 32.3416L44.8135 37.6094C44.282 37.2085 43.6989 36.8723 43.0759 36.6126L45.6586 31.4472C45.991 30.7823 45.5075 30 44.7641 30H43.2363C42.8575 30 42.5112 30.214 42.3418 30.5528L41.1182 33L42.8865 36.5365C42.1052 36.2341 41.2645 36.0509 40.3868 36.0092L37.6586 30.5528C37.4892 30.214 37.1429 30 36.7642 30H35.2363Z" fill="#FCFCFD"/>
</svg>
