<svg width="108" height="20" viewBox="0 0 108 20" fill="none" xmlns="http://www.w3.org/2000/svg">
<path fill-rule="evenodd" clip-rule="evenodd" d="M9.99935 16.667C13.6813 16.667 16.666 13.6822 16.666 10.0003C16.666 6.31843 13.6813 3.33366 9.99935 3.33366C6.31745 3.33366 3.33268 6.31843 3.33268 10.0003C3.33268 13.6822 6.31745 16.667 9.99935 16.667ZM9.99935 18.3337C14.6017 18.3337 18.3327 14.6027 18.3327 10.0003C18.3327 5.39795 14.6017 1.66699 9.99935 1.66699C5.39697 1.66699 1.66602 5.39795 1.66602 10.0003C1.66602 14.6027 5.39697 18.3337 9.99935 18.3337Z" fill="#777E91"/>
<path d="M9.99935 8.33301C9.99935 7.87277 10.3724 7.49967 10.8327 7.49967H11.666C12.1263 7.49967 12.4993 7.12658 12.4993 6.66634C12.4993 6.20611 12.1263 5.83301 11.666 5.83301H10.8327C9.45193 5.83301 8.33268 6.9523 8.33268 8.33301V9.99967H7.49935C7.03912 9.99967 6.66602 10.3728 6.66602 10.833C6.66602 11.2933 7.03911 11.6663 7.49935 11.6663H8.33268V16.6663C8.33268 17.1266 8.70577 17.4997 9.16602 17.4997C9.62627 17.4997 9.99935 17.1266 9.99935 16.6663V11.6663H11.666C12.1263 11.6663 12.4993 11.2933 12.4993 10.833C12.4993 10.3728 12.1263 9.99967 11.666 9.99967H9.99935V8.33301Z" fill="#777E91"/>
<path fill-rule="evenodd" clip-rule="evenodd" d="M46.6512 11.6665C45.2731 11.6704 44.3835 13.2403 45.2325 14.4298C46.4483 16.133 48.6531 17.5 52.3339 17.5C58.0382 17.5 62.617 12.8514 61.976 7.35925L62.9151 5.48108C63.5664 4.17857 62.4347 2.69685 61.0067 2.98245L59.766 3.23057C59.4371 3.05702 59.0967 2.92606 58.8058 2.83117C58.2388 2.64627 57.5525 2.5 56.9173 2.5C55.7762 2.5 54.7914 2.79276 54.0087 3.37994C53.2349 3.96053 52.7991 4.72354 52.5599 5.42421C52.4497 5.74717 52.3763 6.07112 52.3292 6.38203C51.8864 6.24269 51.435 6.05522 50.9931 5.82629C49.9904 5.30693 49.1796 4.64852 48.7222 4.07126C47.9549 3.10275 46.3287 3.17456 45.758 4.43351C44.9537 6.20789 45.1744 8.31122 45.8973 10.0108C46.1396 10.5803 46.4548 11.1434 46.8399 11.6652C46.774 11.666 46.7109 11.6663 46.6512 11.6665ZM52.3339 15.8333C49.1144 15.8333 47.4497 14.6672 46.5889 13.4614C46.5502 13.4072 46.5892 13.3333 46.6558 13.3332C47.5315 13.3307 49.329 13.2892 50.5145 12.5954C50.5758 12.5595 50.5623 12.4691 50.495 12.4465C47.7315 11.5173 46.1606 7.58216 47.2759 5.12158C47.3015 5.06517 47.3774 5.05772 47.4158 5.10628C48.6899 6.71432 51.4756 8.28933 53.8992 8.33242C53.9518 8.33333 53.9915 8.28558 53.9835 8.23361C53.8859 7.60044 53.5129 4.16667 56.9172 4.16667C57.7301 4.16667 58.9396 4.56319 59.3851 4.96942C59.4057 4.98819 59.4336 4.99672 59.4609 4.99125L61.3334 4.61675C61.4014 4.60315 61.4554 4.67371 61.4244 4.73573L60.2629 7.05849C60.2549 7.07462 60.2524 7.09312 60.2554 7.11088C61.0689 11.6833 57.3239 15.8333 52.3339 15.8333Z" fill="#777E91"/>
<path fill-rule="evenodd" clip-rule="evenodd" d="M101.333 3.33366H94.666C92.8251 3.33366 91.3327 4.82604 91.3327 6.66699V13.3337C91.3327 15.1746 92.8251 16.667 94.666 16.667H101.333C103.174 16.667 104.666 15.1746 104.666 13.3337V6.66699C104.666 4.82604 103.174 3.33366 101.333 3.33366ZM94.666 1.66699C91.9046 1.66699 89.666 3.90557 89.666 6.66699V13.3337C89.666 16.0951 91.9046 18.3337 94.666 18.3337H101.333C104.094 18.3337 106.333 16.0951 106.333 13.3337V6.66699C106.333 3.90557 104.094 1.66699 101.333 1.66699H94.666Z" fill="#777E91"/>
<path d="M102.167 6.66667C102.628 6.66667 103.001 6.29357 103.001 5.83333C103.001 5.3731 102.628 5 102.167 5C101.707 5 101.334 5.3731 101.334 5.83333C101.334 6.29357 101.707 6.66667 102.167 6.66667Z" fill="#777E91"/>
<path fill-rule="evenodd" clip-rule="evenodd" d="M102.167 9.99967C102.167 12.3008 100.302 14.1663 98.0007 14.1663C95.6995 14.1663 93.834 12.3008 93.834 9.99967C93.834 7.69849 95.6995 5.83301 98.0007 5.83301C100.302 5.83301 102.167 7.69849 102.167 9.99967ZM100.501 9.99967C100.501 11.3804 99.3814 12.4997 98.0007 12.4997C96.6199 12.4997 95.5007 11.3804 95.5007 9.99967C95.5007 8.61892 96.6199 7.49967 98.0007 7.49967C99.3814 7.49967 100.501 8.61892 100.501 9.99967Z" fill="#777E91"/>
</svg>
