<svg width="160" height="160" viewBox="0 0 160 160" fill="none" xmlns="http://www.w3.org/2000/svg">
<rect width="160" height="160" rx="24" fill="#EF466F"/>
<path fill-rule="evenodd" clip-rule="evenodd" d="M83.3333 93.3333L93.3333 83.3333C97.9357 78.7309 97.9357 71.269 93.3333 66.6666C88.7309 62.0642 81.269 62.0643 76.6666 66.6666L66.6666 76.6666C62.0642 81.269 62.0643 88.7309 66.6666 93.3333C71.269 97.9357 78.7309 97.9357 83.3333 93.3333ZM87.8451 74.5118C88.496 73.8609 88.496 72.8056 87.8451 72.1547C87.1942 71.5039 86.1389 71.5039 85.4881 72.1547L82.1547 75.4881C81.5039 76.1389 81.5039 77.1942 82.1547 77.8451C82.8056 78.496 83.8609 78.496 84.5118 77.8451L87.8451 74.5118Z" fill="#FCFCFD"/>
</svg>
