<svg width="160" height="160" viewBox="0 0 160 160" fill="none" xmlns="http://www.w3.org/2000/svg">
<rect width="160" height="160" rx="24" fill="#9757D7"/>
<path d="M70 79.1663C70 78.7062 70.3731 78.333 70.8333 78.333H89.1667C89.6268 78.333 90 78.7062 90 79.1663V86.6663C90 88.8433 88.6087 90.6955 86.6667 91.3818V94.9997C86.6667 95.9202 85.9205 96.6663 85 96.6663C84.0795 96.6663 83.3333 95.9202 83.3333 94.9997V91.6663H76.6667V94.9997C76.6667 95.9202 75.9205 96.6663 75 96.6663C74.0795 96.6663 73.3333 95.9202 73.3333 94.9997V91.3818C71.3914 90.6955 70 88.8433 70 86.6663V79.1663Z" fill="#FCFCFD"/>
<path d="M65.0002 75C64.0797 75 63.3335 75.7462 63.3335 76.6667V83.3333C63.3335 84.2538 64.0797 85 65.0002 85C65.9206 85 66.6668 84.2538 66.6668 83.3333V76.6667C66.6668 75.7462 65.9206 75 65.0002 75Z" fill="#FCFCFD"/>
<path d="M95.0002 75C94.0797 75 93.3335 75.7462 93.3335 76.6667V83.3333C93.3335 84.2538 94.0797 85 95.0002 85C95.9207 85 96.6668 84.2538 96.6668 83.3333V76.6667C96.6668 75.7462 95.9207 75 95.0002 75Z" fill="#FCFCFD"/>
<path fill-rule="evenodd" clip-rule="evenodd" d="M72.5881 63.5093C73.4114 63.0977 74.4126 63.4314 74.8242 64.2547L75.6849 65.9761C76.9913 65.3502 78.4548 64.9997 80.0002 64.9997C81.5455 64.9997 83.009 65.3502 84.3155 65.9761L85.1762 64.2547C85.5878 63.4314 86.589 63.0977 87.4123 63.5093C88.2355 63.921 88.5693 64.9221 88.1577 65.7454L87.0678 67.9251C88.6957 69.5514 89.7657 71.736 89.966 74.1671C90.0038 74.6258 89.6272 74.9997 89.1668 74.9997H70.8335C70.3733 74.9997 69.9966 74.6258 70.0344 74.1671C70.2347 71.736 71.3048 69.5514 72.9326 67.9251L71.8428 65.7454C71.4311 64.9221 71.7648 63.921 72.5881 63.5093Z" fill="#FCFCFD"/>
</svg>
