<svg width="72" height="26" viewBox="0 0 72 26" fill="none" xmlns="http://www.w3.org/2000/svg">
<rect x="1" y="1" width="70" height="24" rx="3" stroke="#23262F" stroke-width="2"/>
<path d="M10.76 9.576V14.616C10.76 15.12 10.884 15.508 11.132 15.78C11.38 16.052 11.744 16.188 12.224 16.188C12.704 16.188 13.072 16.052 13.328 15.78C13.584 15.508 13.712 15.12 13.712 14.616V9.576H15.764V14.604C15.764 15.356 15.604 15.992 15.284 16.512C14.964 17.032 14.532 17.424 13.988 17.688C13.452 17.952 12.852 18.084 12.188 18.084C11.524 18.084 10.928 17.956 10.4 17.7C9.88 17.436 9.468 17.044 9.164 16.524C8.86 15.996 8.708 15.356 8.708 14.604V9.576H10.76ZM23.6249 12.288C23.6249 12.776 23.5129 13.224 23.2889 13.632C23.0649 14.032 22.7209 14.356 22.2569 14.604C21.7929 14.852 21.2169 14.976 20.5289 14.976H19.2569V18H17.2049V9.576H20.5289C21.2009 9.576 21.7689 9.692 22.2329 9.924C22.6969 10.156 23.0449 10.476 23.2769 10.884C23.5089 11.292 23.6249 11.76 23.6249 12.288ZM20.3729 13.344C20.7649 13.344 21.0569 13.252 21.2489 13.068C21.4409 12.884 21.5369 12.624 21.5369 12.288C21.5369 11.952 21.4409 11.692 21.2489 11.508C21.0569 11.324 20.7649 11.232 20.3729 11.232H19.2569V13.344H20.3729ZM27.8492 9.576C28.7372 9.576 29.5132 9.752 30.1772 10.104C30.8412 10.456 31.3532 10.952 31.7132 11.592C32.0812 12.224 32.2652 12.956 32.2652 13.788C32.2652 14.612 32.0812 15.344 31.7132 15.984C31.3532 16.624 30.8372 17.12 30.1652 17.472C29.5012 17.824 28.7292 18 27.8492 18H24.6932V9.576H27.8492ZM27.7172 16.224C28.4932 16.224 29.0972 16.012 29.5292 15.588C29.9612 15.164 30.1772 14.564 30.1772 13.788C30.1772 13.012 29.9612 12.408 29.5292 11.976C29.0972 11.544 28.4932 11.328 27.7172 11.328H26.7452V16.224H27.7172ZM38.656 16.512H35.512L35.008 18H32.86L35.908 9.576H38.284L41.332 18H39.16L38.656 16.512ZM38.128 14.928L37.084 11.844L36.052 14.928H38.128ZM48.3196 9.576V11.22H46.0876V18H44.0356V11.22H41.8036V9.576H48.3196ZM51.4015 11.22V12.924H54.1495V14.508H51.4015V16.356H54.5095V18H49.3495V9.576H54.5095V11.22H51.4015ZM58.9977 9.576C59.8857 9.576 60.6617 9.752 61.3257 10.104C61.9897 10.456 62.5017 10.952 62.8617 11.592C63.2297 12.224 63.4137 12.956 63.4137 13.788C63.4137 14.612 63.2297 15.344 62.8617 15.984C62.5017 16.624 61.9857 17.12 61.3137 17.472C60.6497 17.824 59.8777 18 58.9977 18H55.8417V9.576H58.9977ZM58.8657 16.224C59.6417 16.224 60.2457 16.012 60.6777 15.588C61.1097 15.164 61.3257 14.564 61.3257 13.788C61.3257 13.012 61.1097 12.408 60.6777 11.976C60.2457 11.544 59.6417 11.328 58.8657 11.328H57.8937V16.224H58.8657Z" fill="#23262F"/>
</svg>
