<svg width="160" height="160" viewBox="0 0 160 160" fill="none" xmlns="http://www.w3.org/2000/svg">
<rect width="160" height="160" rx="24" fill="#45B36B"/>
<path d="M66.1724 67.9068C64.5406 68.1516 63.3335 69.5533 63.3335 71.2033V77.4996C63.3335 77.9598 63.7066 78.333 64.1668 78.333H75.8335C76.2937 78.333 76.6668 77.9598 76.6668 77.4996V67.3003C76.6668 66.7908 76.2137 66.4006 75.7099 66.4762L66.1724 67.9068Z" fill="#FCFCFD"/>
<path d="M80.7097 65.7261C80.3018 65.7873 80 66.1377 80 66.5502V77.4995C80 77.9597 80.3732 78.3329 80.8333 78.3329H95.8333C96.2935 78.3329 96.6667 77.9597 96.6667 77.4995V67.2032C96.6667 65.1653 94.8542 63.6044 92.8388 63.9067L80.7097 65.7261Z" fill="#FCFCFD"/>
<path d="M96.6667 82.5003C96.6667 82.0402 96.2935 81.667 95.8333 81.667H80.8333C80.3732 81.667 80 82.0402 80 82.5003V93.449C80 93.8615 80.3018 94.212 80.7097 94.2732L92.8388 96.0925C94.8542 96.3948 96.6667 94.834 96.6667 92.796V82.5003Z" fill="#FCFCFD"/>
<path d="M75.7099 93.5232C76.2137 93.5987 76.6668 93.2085 76.6668 92.699V82.5003C76.6668 82.0402 76.2937 81.667 75.8335 81.667H64.1668C63.7066 81.667 63.3335 82.0402 63.3335 82.5003V88.796C63.3335 90.446 64.5406 91.8478 66.1724 92.0925L75.7099 93.5232Z" fill="#FCFCFD"/>
</svg>
